<?xml version="1.0" encoding="iso-8859-1"?>
<!-- Uploaded to: SVG Repo, www.svgrepo.com, Generator: SVG Repo Mixer Tools -->
<!DOCTYPE svg PUBLIC "-//W3C//DTD SVG 1.1//EN" "http://www.w3.org/Graphics/SVG/1.1/DTD/svg11.dtd">
<svg fill="#000000" version="1.1" id="Capa_1" xmlns="http://www.w3.org/2000/svg" xmlns:xlink="http://www.w3.org/1999/xlink" 
	 width="800px" height="800px" viewBox="0 0 985.513 985.513"
	 xml:space="preserve">
<g>
	<path d="M449.217,784.613c-28.5-9.5-49.2-36.4-49.2-68.101c0-31.699,20.601-58.6,49.2-68.1c4.5-16.9,10.7-33.4,18.601-49.2
		c12.8-25.7,29.6-49,49.899-69.3s43.7-37.1,69.3-49.901c15.801-7.8,32.2-14.1,49.2-18.6c9.5-28.5,36.4-49.2,68.101-49.2
		c31.699,0,58.6,20.601,68.1,49.2c16.9,4.5,33.4,10.7,49.2,18.6c22.399,11.101,43,25.401,61.399,42.301
		c-18.5-62.201-58.3-115.301-111-150.701c-15.699-10.5-13.899-34,3.101-42.1c74.3-35.3,135.399-84.1,135.399-133.2
		c0-35.3-59.5-49.3-133-33.8c-19.399-93.5-102.699-163.6-202.3-162.5c-112.2,1.3-203,93.9-202,206.2c0.5,55.2,22.9,105,58.8,141.5
		c13.2,13.4,6.801,36-11.5,40.5c-40.3,9.9-85.699,15.5-136.6,9.5c-101.2-11.8-145.9-57.8-164.7-88c-8.5-13.7-27.7-15.4-38.6-3.4
		c-74.4,82.2-93.6,237.7-31.2,363.001c79.6,159.6,266.7,213,450.7,214.399c-12.601-15.399-23.4-32.1-32.3-49.899
		C460.017,818.013,453.817,801.513,449.217,784.613z M641.417,111.913c24.3,0,44,19.7,44,44s-19.7,44-44,44s-44-19.7-44-44
		S617.117,111.913,641.417,111.913z"/>
	<path d="M936.917,679.713h-6.5c-3.7-22.6-10.7-44.399-20.9-64.899c-4.5-9.101-9.699-17.9-15.3-26.301
		c-8.2-12.1-17.5-23.5-28-33.899c-17.7-17.7-37.899-32.2-60.2-43.3c-20.5-10.2-42.399-17.2-64.899-20.901v-6.5
		c0-20.3-16.5-36.7-36.7-36.7s-36.7,16.5-36.7,36.7v6.4c-22.6,3.7-44.399,10.7-64.899,20.9c-22.301,11.101-42.5,25.7-60.2,43.3
		c-17.7,17.7-32.2,37.9-43.3,60.2c-10.2,20.5-17.2,42.4-20.9,64.9h-6.4c-20.3,0-36.699,16.5-36.699,36.7
		c0,20.3,16.5,36.699,36.699,36.699h6.4c3.7,22.601,10.7,44.4,20.9,64.9c11.1,22.3,25.699,42.5,43.3,60.2c1.5,1.5,3.1,3.1,4.7,4.6
		c16.5,15.601,35.199,28.601,55.5,38.8c20.5,10.2,42.399,17.2,64.899,20.9v6.4c0,20.3,16.5,36.699,36.7,36.699
		s36.7-16.5,36.7-36.699v-6.4c22.6-3.7,44.399-10.7,64.899-20.9c22.301-11.1,42.5-25.699,60.2-43.3c17.7-17.7,32.2-37.899,43.3-60.2
		c10.2-20.5,17.2-42.399,20.9-64.899h6.4c20.3,0,36.699-16.5,36.699-36.7C973.617,696.213,957.117,679.713,936.917,679.713z
		 M846.817,751.913c2.8,0.7,5.699,1.2,8.699,1.3c-6.699,27.601-20.8,52.8-41.199,73.2c-20.4,20.4-45.5,34.5-73.2,41.2
		c-0.2-8.3-3.101-15.9-8-21.9c-6.7-8.5-17.101-13.899-28.8-13.899c-20,0-36.301,16-36.7,35.899c-27.601-6.7-52.8-20.8-73.2-41.2
		c-20.4-20.399-34.5-45.5-41.2-73.199c19.9-0.5,35.9-16.801,35.9-36.7c0-19.9-16-36.3-35.9-36.7c6.7-27.6,20.8-52.8,41.2-73.2
		c20.4-20.399,45.5-34.5,73.2-41.2c0.5,19.9,16.8,35.9,36.7,35.9c20,0,36.3-16,36.699-35.9c27.601,6.7,52.801,20.801,73.2,41.2
		c20.4,20.4,34.5,45.5,41.2,73.2c-19.9,0.5-35.9,16.8-35.9,36.7C819.617,733.413,831.217,747.713,846.817,751.913z"/>
	<circle cx="704.417" cy="716.513" r="41.6"/>
</g>
</svg>